<svg width="75" height="75" viewBox="0 0 100 100" fill="none" xmlns="http://www.w3.org/2000/svg">
<path d="M50 0C22.4 0 0 22.4 0 50C0 77.6 22.4 100 50 100C77.6 100 100 77.6 100 50C100 22.4 77.6 0 50 0Z" fill="#FFBC57"/>
<path d="M50.5 23.4166C41.5381 23.4166 34.25 30.7048 34.25 39.6666H39.6667C39.6667 33.692 44.5254 28.8333 50.5 28.8333C56.4746 28.8333 61.3333 33.692 61.3333 39.6666C61.3333 44.2112 58.5266 46.976 55.2766 50.1773C51.7693 53.6304 47.7917 57.5443 47.7917 64.0416H53.2083C53.2083 59.8112 55.9275 57.1344 59.0746 54.0388C62.674 50.4963 66.75 46.4808 66.75 39.6666C66.75 30.7048 59.4619 23.4166 50.5 23.4166ZM47.7917 72.1666V77.5833H53.2083V72.1666H47.7917Z" fill="#0B0C0C"/>
</svg>
