<?xml version="1.0" encoding="utf-8"?>
<svg version="1.1" id="Ebene_1" xmlns="http://www.w3.org/2000/svg" xmlns:xlink="http://www.w3.org/1999/xlink" x="0px" y="0px"
	 viewBox="0 0 22 19.7" style="enable-background:new 0 0 22 19.7;" xml:space="preserve">
<style type="text/css">
	.st0{fill:#C0003C;}
	.st1{fill:#FFFFFF;}
</style>
<path class="st0" d="M13.2,1.3l8.4,14.6c0.5,0.8,0.5,1.8,0,2.6c-0.5,0.8-1.3,1.3-2.2,1.3H2.6c-0.9,0-1.8-0.5-2.2-1.3
	c-0.5-0.8-0.5-1.8,0-2.6L8.8,1.3C9.2,0.5,10.1,0,11,0S12.8,0.5,13.2,1.3z"/>
<path class="st1" d="M12,6h-2v7h2V6z"/>
<path class="st1" d="M11,14c-0.7,0-1.2,0.6-1.2,1.2c0,0.7,0.6,1.2,1.2,1.2c0.7,0,1.2-0.6,1.2-1.2C12.2,14.6,11.6,14,11,14z"/>
</svg>
