<svg width="137" height="78" viewBox="0 0 137 78" fill="none" xmlns="http://www.w3.org/2000/svg">
<path d="M8.81665 21.2354C14.6105 21.2354 18.9288 17.4858 18.9288 11.0323C18.9288 4.57876 14.6464 0.793172 8.85264 0.793172H1.51143V21.2354H8.81665ZM8.67271 17.5579H5.50591V4.4706H8.70869C12.0554 4.4706 14.8264 6.56169 14.8264 11.0323C14.8264 15.5029 12.0194 17.5579 8.67271 17.5579ZM23.643 4.72298C24.9745 4.72298 26.0181 3.64138 26.0181 2.37951C26.0181 1.04554 24.9745 0 23.643 0C22.3475 0 21.2679 1.0816 21.2679 2.37951C21.3039 3.67743 22.3475 4.72298 23.643 4.72298ZM25.5863 21.2354V7.03038H21.7358V21.2354H25.5863ZM35.1946 27.1481C40.5206 27.1481 42.6078 23.6149 42.6078 19.7211V7.03038H38.9372V8.68883C38.4334 7.75145 37.1379 6.74196 34.9067 6.74196C31.0202 6.74196 28.3212 9.91464 28.3212 13.6642C28.3212 17.63 31.1282 20.5504 34.9067 20.5504C36.958 20.5504 38.2895 19.649 38.8652 18.7477V19.7932C38.8652 22.5333 37.4978 23.7591 35.0867 23.7591C33.2874 23.7591 32.0278 22.6414 31.7759 21.0912L28.3212 22.0285C28.7171 24.7325 31.3081 27.1481 35.1946 27.1481ZM35.5545 17.3056C33.5753 17.3056 32.1718 15.9355 32.1718 13.7002C32.1718 11.501 33.6832 10.131 35.5545 10.131C37.3898 10.131 38.9012 11.501 38.9012 13.7002C38.9012 15.8995 37.4978 17.3056 35.5545 17.3056ZM48.0778 4.72298C49.4092 4.72298 50.4528 3.64138 50.4528 2.37951C50.4528 1.04554 49.4092 0 48.0778 0C46.7822 0 45.7027 1.0816 45.7027 2.37951C45.7027 3.67743 46.7822 4.72298 48.0778 4.72298ZM49.985 21.2354V7.03038H46.1705V21.2354H49.985ZM59.2335 21.4517C60.3491 21.4517 61.0328 21.2354 61.3927 21.0912V17.9185C61.1768 17.9906 60.673 18.0266 60.2051 18.0266C59.1256 18.0266 58.5498 17.63 58.5498 16.3682V10.4554H61.3927V7.06644H58.5138V2.81215H55.0591V4.79508C55.0591 6.05695 54.3754 7.03038 52.8639 7.03038H52.1442V10.4194H54.6992V17.0171C54.7352 19.7932 56.4626 21.4517 59.2335 21.4517ZM68.1221 21.632C70.2094 21.632 71.5768 20.6585 72.2966 19.5409C72.2966 20.0817 72.3685 20.8748 72.4405 21.2354H75.9672C75.8952 20.7306 75.7872 19.7211 75.7872 19.0001V12.0057C75.7872 9.15753 74.1319 6.59774 69.6336 6.59774C65.819 6.59774 63.8038 9.04937 63.5519 11.2847L66.9346 12.0057C67.0425 10.7799 67.9782 9.69832 69.6336 9.69832C71.253 9.69832 72.0087 10.5275 72.0087 11.537C72.0087 12.0418 71.7568 12.4384 70.9291 12.5465L67.4384 13.0513C65.0633 13.4118 63.192 14.8179 63.192 17.3416C63.264 19.5769 65.0993 21.632 68.1221 21.632ZM68.9498 18.7837C67.7263 18.7837 67.1145 17.9906 67.1145 17.1253C67.1145 16.0437 67.9062 15.4668 68.8779 15.3226L72.0806 14.8179V15.4668C72.0447 17.9906 70.5332 18.7837 68.9498 18.7837ZM83.0565 21.2354V0.360532H79.2419V21.2354H83.0565ZM8.20489 46.9053C12.9551 46.9053 15.5821 43.7326 15.5821 40.596C15.5821 37.7117 13.6028 35.2961 9.89624 34.5751L7.05332 34.0343C5.5419 33.7458 4.82217 32.8445 4.82217 31.7269C4.82217 30.3568 6.08169 29.131 8.02495 29.131C10.616 29.131 11.5516 30.8976 11.7315 32.0153L15.2942 30.9337C14.8264 28.6263 12.9191 25.6339 7.98897 25.6339C4.13843 25.6339 0.863672 28.41 0.863672 32.0513C0.863672 35.1519 2.95088 37.243 6.22564 37.892L9.06856 38.4688C10.652 38.7933 11.5516 39.6946 11.5516 40.8844C11.5516 42.3265 10.3641 43.4081 8.24087 43.4081C5.36196 43.4081 3.9585 41.6054 3.77857 39.5865L0.107959 40.5599C0.39585 43.4081 2.80693 46.9053 8.20489 46.9053ZM24.7946 46.9053C28.2853 46.9053 30.5164 44.8502 31.2361 42.3986L28.0334 41.4612C27.5655 42.7231 26.5939 43.6244 24.7946 43.6244C22.8873 43.6244 21.3039 42.2544 21.2319 40.3796H31.3801C31.3801 40.3075 31.4521 39.7307 31.4521 39.1899C31.4521 34.6472 28.8251 31.835 24.4707 31.835C20.8361 31.835 17.4894 34.7914 17.4894 39.298C17.4894 44.0931 20.9081 46.9053 24.7946 46.9053ZM27.6735 37.7477H21.3399C21.4119 36.4498 22.5274 34.9356 24.5067 34.9356C26.7019 34.9717 27.6375 36.3417 27.6735 37.7477ZM38.0016 46.4726V39.9831C38.0016 36.9185 39.6929 35.9811 41.6722 35.9811C42.032 35.9811 42.3919 36.0172 42.8237 36.0893V32.2316C42.5359 32.1956 42.248 32.1595 41.9241 32.1595C40.7006 32.1595 38.7573 32.52 37.8936 34.3948V32.3037H34.187V46.4726H38.0016ZM52.9719 46.4726L58.4778 32.2677H54.4473L51.0646 41.7857L47.538 32.2677H43.3276L49.1573 46.4726H52.9719ZM62.4723 29.9602C63.8038 29.9602 64.8474 28.8787 64.8474 27.6168C64.8474 26.2828 63.8038 25.2373 62.4723 25.2373C61.1768 25.2373 60.0972 26.3189 60.0972 27.6168C60.0972 28.9147 61.1768 29.9602 62.4723 29.9602ZM64.4156 46.4726V32.2677H60.601V46.4726H64.4156ZM74.5637 46.9053C78.3423 46.9053 80.5374 44.4897 81.1852 42.1102L77.8025 40.9925C77.4786 42.0741 76.507 43.3721 74.5637 43.3721C72.6204 43.3721 70.9291 41.9299 70.9291 39.3701C70.9291 36.8104 72.5844 35.4043 74.5277 35.4043C76.435 35.4043 77.3346 36.6301 77.6585 37.7838L81.0772 36.6301C80.4655 34.2506 78.2703 31.835 74.4198 31.835C70.3173 31.835 67.0785 34.9716 67.0785 39.3701C67.0785 43.7326 70.3893 46.9053 74.5637 46.9053ZM90.0738 46.9053C93.5645 46.9053 95.7956 44.8502 96.5154 42.3986L93.3126 41.4612C92.8447 42.7231 91.8731 43.6244 90.0738 43.6244C88.1665 43.6244 86.5831 42.2544 86.5112 40.3796H96.6593C96.6593 40.3075 96.7313 39.7307 96.7313 39.1899C96.7313 34.6472 94.1043 31.835 89.7499 31.835C86.1153 31.835 82.7686 34.7914 82.7686 39.298C82.7686 44.0931 86.1873 46.9053 90.0738 46.9053ZM92.9527 37.7477H86.6191C86.6911 36.4498 87.8067 34.9356 89.7859 34.9356C91.9811 34.9717 92.9167 36.3417 92.9527 37.7477ZM12.7392 71.7099V67.708H15.834V64.319H12.7392V52.9983H7.84502L0 63.5619V67.708H8.85264V71.7099H12.7392ZM8.81665 64.2829H3.49067L8.81665 57.1444V64.2829ZM27.6375 72.1426C30.7323 72.1426 32.7476 70.7725 33.6472 69.3664L33.8991 71.7099H37.1379V61.0742H26.9538V64.5353H33.3953C33.1794 65.9774 31.704 68.5012 27.9254 68.5012C24.5067 68.5012 21.4838 66.1217 21.4838 61.5068C21.4838 56.6757 24.8306 54.5486 27.8894 54.5486C31.2002 54.5486 32.8915 56.6397 33.4313 58.4784L37.2459 57.1083C36.2382 53.9717 33.2874 50.8351 27.9254 50.8351C22.3835 50.8351 17.4894 54.9091 17.4894 61.5068C17.4894 68.1046 22.1316 72.1426 27.6375 72.1426ZM46.8182 72.1426C50.3089 72.1426 52.5401 70.0875 53.2598 67.6359L50.057 66.6985C49.5892 67.9604 48.6175 68.8617 46.8182 68.8617C44.911 68.8617 43.3276 67.4917 43.2556 65.6169H53.4037C53.4037 65.5448 53.4757 64.968 53.4757 64.4272C53.4757 59.8844 50.8487 57.0723 46.4944 57.0723C42.8597 57.0723 39.513 60.0287 39.513 64.5353C39.513 69.3304 42.9317 72.1426 46.8182 72.1426ZM49.6971 62.985H43.3635C43.4355 61.6871 44.5511 60.1729 46.5303 60.1729C48.7255 60.2089 49.6252 61.5789 49.6971 62.985ZM60.0252 71.7099V65.2203C60.0252 62.1558 61.7166 61.2184 63.6958 61.2184C64.0557 61.2184 64.4156 61.2545 64.8474 61.3266V57.4689C64.5595 57.4328 64.2716 57.3968 63.9477 57.3968C62.7242 57.3968 60.7809 57.7573 59.9173 59.6321V57.541H56.2107V71.7099H60.0252ZM70.8211 71.7099V63.4177C70.8211 61.8674 71.7927 60.6055 73.4841 60.6055C75.2114 60.6055 76.0032 61.7592 76.0032 63.2735V71.7099H79.8177V63.4177C79.8177 61.9034 80.7893 60.6055 82.4447 60.6055C84.208 60.6055 84.9638 61.7592 84.9638 63.2735V71.7099H88.6703V62.5163C88.6703 58.6947 86.1513 57.1083 83.5603 57.1083C81.689 57.1083 80.1776 57.7573 79.062 59.4879C78.3423 57.9736 76.7949 57.1083 74.8516 57.1083C73.3042 57.1083 71.4689 57.8655 70.7132 59.2355V57.5049H67.0425V71.7099H70.8211ZM96.0475 72.1065C98.1348 72.1065 99.5022 71.1331 100.222 70.0154C100.222 70.5562 100.294 71.3494 100.366 71.7099H103.893C103.821 71.2052 103.713 70.1957 103.713 69.4746V62.4803C103.713 59.6321 102.057 57.0723 97.559 57.0723C93.7444 57.0723 91.7292 59.5239 91.4773 61.7592L94.86 62.4803C94.968 61.2545 95.9036 60.1729 97.559 60.1729C99.1784 60.1729 99.9341 61.0021 99.9341 62.0116C99.9341 62.5163 99.6822 62.9129 98.8545 63.0211L95.3638 63.5258C92.9887 63.8864 91.1174 65.2924 91.1174 67.8162C91.1894 70.0515 93.0247 72.1065 96.0475 72.1065ZM96.8752 69.2583C95.6517 69.2583 95.0399 68.4651 95.0399 67.5998C95.0399 66.5182 95.8316 65.9414 96.8033 65.7972L100.006 65.2924V65.9414C99.97 68.4651 98.4586 69.2583 96.8752 69.2583ZM110.982 71.7099V63.5619C110.982 61.9034 111.953 60.6055 113.645 60.6055C115.48 60.6055 116.272 61.8313 116.272 63.4177V71.7099H120.086V62.7687C120.086 59.6681 118.467 57.1444 114.976 57.1444C113.465 57.1444 111.738 57.7934 110.874 59.2715V57.5049H107.167V71.7099H110.982ZM128.111 77.2982L137 57.5049H132.898L129.407 65.7972L125.628 57.5049H121.346L127.356 69.9072L124.009 77.2982H128.111Z" fill="#0B0C0C"/>
</svg>
