<svg width="189" height="40" viewBox="0 0 189 40" fill="none" xmlns="http://www.w3.org/2000/svg">
<path d="M1.953 16V1.51H4.935C6.293 1.51 7.469 1.643 8.463 1.909C9.471 2.161 10.297 2.567 10.941 3.127C11.599 3.673 12.082 4.387 12.39 5.269C12.712 6.137 12.873 7.187 12.873 8.419C12.873 9.721 12.684 10.855 12.306 11.821C11.942 12.773 11.41 13.557 10.71 14.173C10.01 14.789 9.149 15.251 8.127 15.559C7.119 15.853 5.971 16 4.683 16H1.953ZM3.78 3.085V14.425H4.683C5.691 14.425 6.58 14.313 7.35 14.089C8.134 13.865 8.785 13.515 9.303 13.039C9.835 12.549 10.234 11.926 10.5 11.17C10.78 10.414 10.92 9.497 10.92 8.419C10.92 7.425 10.787 6.592 10.521 5.92C10.269 5.234 9.891 4.681 9.387 4.261C8.883 3.841 8.253 3.54 7.497 3.358C6.755 3.176 5.901 3.085 4.935 3.085H3.78ZM22.9084 9.616C22.9084 9.952 22.8874 10.26 22.8454 10.54C22.8174 10.82 22.7754 11.079 22.7194 11.317H16.8604C16.9304 12.493 17.2244 13.361 17.7424 13.921C18.2744 14.467 19.0024 14.74 19.9264 14.74C20.3184 14.74 20.6614 14.705 20.9554 14.635C21.2634 14.551 21.5224 14.46 21.7324 14.362C21.9564 14.264 22.1314 14.166 22.2574 14.068C22.3974 13.956 22.5024 13.865 22.5724 13.795L23.0764 15.013C22.9924 15.097 22.8664 15.209 22.6984 15.349C22.5444 15.489 22.3344 15.629 22.0684 15.769C21.8164 15.895 21.4944 16.007 21.1024 16.105C20.7244 16.203 20.2694 16.252 19.7374 16.252C18.3094 16.252 17.1894 15.818 16.3774 14.95C15.5654 14.082 15.1594 12.71 15.1594 10.834C15.1594 9.952 15.2784 9.189 15.5164 8.545C15.7544 7.887 16.0764 7.348 16.4824 6.928C16.8884 6.508 17.3504 6.193 17.8684 5.983C18.4004 5.773 18.9534 5.668 19.5274 5.668C20.5774 5.668 21.4034 6.011 22.0054 6.697C22.6074 7.369 22.9084 8.342 22.9084 9.616ZM19.3804 7.117C18.6664 7.117 18.0854 7.369 17.6374 7.873C17.1894 8.363 16.9304 9.07 16.8604 9.994H21.2704C21.2984 9.868 21.3124 9.756 21.3124 9.658C21.3124 9.546 21.3124 9.434 21.3124 9.322C21.3124 8.608 21.1374 8.062 20.7874 7.684C20.4514 7.306 19.9824 7.117 19.3804 7.117ZM30.5452 7.432C30.4752 7.404 30.3702 7.369 30.2302 7.327C30.1042 7.271 29.9012 7.243 29.6212 7.243C29.2852 7.243 28.9842 7.292 28.7182 7.39C28.4662 7.474 28.2422 7.586 28.0462 7.726C27.8642 7.866 27.7102 8.02 27.5842 8.188C27.4582 8.356 27.3602 8.517 27.2902 8.671V16H25.5892V5.92H27.1642V7.411H27.2062C27.2902 7.229 27.3952 7.04 27.5212 6.844C27.6472 6.648 27.8082 6.466 28.0042 6.298C28.2142 6.13 28.4592 5.997 28.7392 5.899C29.0332 5.787 29.3762 5.731 29.7682 5.731C29.9782 5.731 30.1532 5.745 30.2932 5.773C30.4332 5.801 30.5662 5.836 30.6922 5.878L30.5452 7.432ZM44.2057 4.618C44.1077 4.548 43.9817 4.457 43.8277 4.345C43.6877 4.219 43.5057 4.107 43.2817 4.009C43.0717 3.897 42.8267 3.806 42.5467 3.736C42.2807 3.652 41.9727 3.61 41.6227 3.61C40.9507 3.61 40.4537 3.736 40.1317 3.988C39.8237 4.24 39.6697 4.548 39.6697 4.912C39.6697 5.36 39.7887 5.731 40.0267 6.025C40.2647 6.305 40.6777 6.62 41.2657 6.97L42.8407 7.936C43.3307 8.244 43.7507 8.552 44.1007 8.86C44.4647 9.154 44.7587 9.469 44.9827 9.805C45.2207 10.141 45.3957 10.505 45.5077 10.897C45.6197 11.275 45.6757 11.695 45.6757 12.157C45.6757 12.661 45.5847 13.158 45.4027 13.648C45.2207 14.138 44.9267 14.579 44.5207 14.971C44.1287 15.349 43.6177 15.657 42.9877 15.895C42.3717 16.133 41.6227 16.252 40.7407 16.252C40.1527 16.252 39.6347 16.196 39.1867 16.084C38.7387 15.972 38.3537 15.846 38.0317 15.706C37.7097 15.552 37.4367 15.398 37.2127 15.244C37.0027 15.076 36.8347 14.943 36.7087 14.845L37.6327 12.493C37.7587 12.619 37.9127 12.759 38.0947 12.913C38.2907 13.067 38.5147 13.214 38.7667 13.354C39.0327 13.494 39.3267 13.613 39.6487 13.711C39.9707 13.809 40.3207 13.858 40.6987 13.858C41.4547 13.858 42.0077 13.725 42.3577 13.459C42.7077 13.193 42.8827 12.878 42.8827 12.514C42.8827 12.038 42.7637 11.646 42.5257 11.338C42.3017 11.016 41.9097 10.673 41.3497 10.309L39.7747 9.259C39.2707 8.923 38.8367 8.608 38.4727 8.314C38.1227 8.006 37.8287 7.684 37.5907 7.348C37.3667 7.012 37.1987 6.655 37.0867 6.277C36.9747 5.899 36.9187 5.465 36.9187 4.975C36.9187 4.457 37.0237 3.974 37.2337 3.526C37.4437 3.078 37.7447 2.686 38.1367 2.35C38.5427 2.014 39.0257 1.748 39.5857 1.552C40.1597 1.356 40.8107 1.258 41.5387 1.258C42.0427 1.258 42.4907 1.3 42.8827 1.384C43.2747 1.468 43.6107 1.573 43.8907 1.699C44.1847 1.825 44.4297 1.951 44.6257 2.077C44.8217 2.203 44.9757 2.308 45.0877 2.392L44.2057 4.618ZM53.1326 7.873H50.7806V12.01C50.7806 12.766 50.8856 13.284 51.0956 13.564C51.3056 13.844 51.6556 13.984 52.1456 13.984C52.3836 13.984 52.6006 13.963 52.7966 13.921C52.9926 13.865 53.1326 13.823 53.2166 13.795L53.4056 15.748C53.2936 15.804 53.0836 15.895 52.7756 16.021C52.4816 16.147 52.0406 16.21 51.4526 16.21C50.8786 16.21 50.3816 16.14 49.9616 16C49.5556 15.86 49.2126 15.636 48.9326 15.328C48.6666 15.006 48.4636 14.6 48.3236 14.11C48.1976 13.606 48.1346 12.99 48.1346 12.262V7.873H46.7486V6.067L48.1346 5.815L48.4286 2.959H50.7806V5.773H53.3636L53.1326 7.873ZM62.987 9.616C62.987 10.078 62.966 10.47 62.924 10.792C62.896 11.1 62.861 11.373 62.819 11.611H57.338C57.408 12.479 57.674 13.102 58.136 13.48C58.612 13.844 59.27 14.026 60.11 14.026C60.446 14.026 60.747 13.998 61.013 13.942C61.279 13.872 61.51 13.795 61.706 13.711C61.916 13.613 62.091 13.522 62.231 13.438C62.371 13.34 62.476 13.263 62.546 13.207L63.155 15.055C63.071 15.125 62.952 15.23 62.798 15.37C62.644 15.496 62.42 15.629 62.126 15.769C61.846 15.895 61.489 16.007 61.055 16.105C60.635 16.203 60.124 16.252 59.522 16.252C58.822 16.252 58.178 16.154 57.59 15.958C57.016 15.748 56.519 15.426 56.099 14.992C55.679 14.558 55.35 13.998 55.112 13.312C54.888 12.612 54.776 11.779 54.776 10.813C54.776 9.903 54.895 9.119 55.133 8.461C55.385 7.789 55.721 7.236 56.141 6.802C56.575 6.368 57.072 6.046 57.632 5.836C58.206 5.626 58.808 5.521 59.438 5.521C60.544 5.521 61.412 5.864 62.042 6.55C62.672 7.236 62.987 8.258 62.987 9.616ZM59.186 7.579C58.654 7.579 58.213 7.768 57.863 8.146C57.527 8.524 57.345 9.091 57.317 9.847H60.614C60.628 9.749 60.635 9.665 60.635 9.595C60.635 9.511 60.635 9.434 60.635 9.364C60.635 8.818 60.509 8.384 60.257 8.062C60.005 7.74 59.648 7.579 59.186 7.579ZM73.9179 16H71.5029V14.845H71.4609C71.3629 14.971 71.2369 15.118 71.0829 15.286C70.9289 15.44 70.7329 15.594 70.4949 15.748C70.2709 15.888 69.9979 16.007 69.6759 16.105C69.3539 16.203 68.9759 16.252 68.5419 16.252C67.4499 16.252 66.6239 15.909 66.0639 15.223C65.5039 14.537 65.2239 13.55 65.2239 12.262V5.773H67.8699V11.8C67.8699 12.584 67.9889 13.144 68.2269 13.48C68.4789 13.816 68.8919 13.984 69.4659 13.984C69.8999 13.984 70.2569 13.914 70.5369 13.774C70.8309 13.634 71.0759 13.473 71.2719 13.291V5.773H73.9179V16ZM84.3357 9.616C84.3357 10.078 84.3147 10.47 84.2727 10.792C84.2447 11.1 84.2097 11.373 84.1677 11.611H78.6867C78.7567 12.479 79.0227 13.102 79.4847 13.48C79.9607 13.844 80.6187 14.026 81.4587 14.026C81.7947 14.026 82.0957 13.998 82.3617 13.942C82.6277 13.872 82.8587 13.795 83.0547 13.711C83.2647 13.613 83.4397 13.522 83.5797 13.438C83.7197 13.34 83.8247 13.263 83.8947 13.207L84.5037 15.055C84.4197 15.125 84.3007 15.23 84.1467 15.37C83.9927 15.496 83.7687 15.629 83.4747 15.769C83.1947 15.895 82.8377 16.007 82.4037 16.105C81.9837 16.203 81.4727 16.252 80.8707 16.252C80.1707 16.252 79.5267 16.154 78.9387 15.958C78.3647 15.748 77.8677 15.426 77.4477 14.992C77.0277 14.558 76.6987 13.998 76.4607 13.312C76.2367 12.612 76.1247 11.779 76.1247 10.813C76.1247 9.903 76.2437 9.119 76.4817 8.461C76.7337 7.789 77.0697 7.236 77.4897 6.802C77.9237 6.368 78.4207 6.046 78.9807 5.836C79.5547 5.626 80.1567 5.521 80.7867 5.521C81.8927 5.521 82.7607 5.864 83.3907 6.55C84.0207 7.236 84.3357 8.258 84.3357 9.616ZM80.5347 7.579C80.0027 7.579 79.5617 7.768 79.2117 8.146C78.8757 8.524 78.6937 9.091 78.6657 9.847H81.9627C81.9767 9.749 81.9837 9.665 81.9837 9.595C81.9837 9.511 81.9837 9.434 81.9837 9.364C81.9837 8.818 81.8577 8.384 81.6057 8.062C81.3537 7.74 80.9967 7.579 80.5347 7.579ZM92.3265 7.978C92.2845 7.95 92.1935 7.922 92.0535 7.894C91.9275 7.866 91.7595 7.852 91.5495 7.852C90.9615 7.852 90.4855 7.957 90.1215 8.167C89.7575 8.377 89.4845 8.622 89.3025 8.902V16H86.6565V5.773H89.0925V7.201H89.1345C89.3725 6.739 89.6805 6.354 90.0585 6.046C90.4505 5.738 90.9895 5.584 91.6755 5.584C91.8715 5.584 92.0395 5.598 92.1795 5.626C92.3335 5.64 92.4455 5.654 92.5155 5.668L92.3265 7.978ZM96.7869 12.703C96.7869 13.249 96.8569 13.62 96.9969 13.816C97.1369 13.998 97.3679 14.089 97.6899 14.089C97.8719 14.089 98.0259 14.075 98.1519 14.047C98.2919 14.005 98.3969 13.97 98.4669 13.942L98.6349 15.79C98.5229 15.86 98.3199 15.944 98.0259 16.042C97.7319 16.14 97.3469 16.189 96.8709 16.189C96.4509 16.189 96.0659 16.133 95.7159 16.021C95.3799 15.923 95.0929 15.755 94.8549 15.517C94.6309 15.265 94.4559 14.943 94.3299 14.551C94.2039 14.145 94.1409 13.655 94.1409 13.081V1.195L96.7869 0.964V12.703ZM109.136 10.876C109.136 11.786 109.003 12.577 108.737 13.249C108.471 13.921 108.114 14.481 107.666 14.929C107.232 15.363 106.728 15.692 106.154 15.916C105.58 16.14 104.985 16.252 104.369 16.252C103.725 16.252 103.123 16.147 102.563 15.937C102.003 15.727 101.513 15.405 101.093 14.971C100.673 14.523 100.344 13.963 100.106 13.291C99.8682 12.605 99.7492 11.8 99.7492 10.876C99.7492 9.98 99.8822 9.196 100.148 8.524C100.414 7.852 100.764 7.292 101.198 6.844C101.646 6.396 102.157 6.067 102.731 5.857C103.305 5.633 103.9 5.521 104.516 5.521C105.16 5.521 105.762 5.626 106.322 5.836C106.896 6.046 107.386 6.368 107.792 6.802C108.212 7.236 108.541 7.796 108.779 8.482C109.017 9.154 109.136 9.952 109.136 10.876ZM106.427 10.876C106.427 10.316 106.371 9.84 106.259 9.448C106.161 9.042 106.021 8.72 105.839 8.482C105.657 8.244 105.447 8.069 105.209 7.957C104.971 7.845 104.719 7.789 104.453 7.789C103.907 7.789 103.438 8.027 103.046 8.503C102.654 8.979 102.458 9.77 102.458 10.876C102.458 12.01 102.654 12.815 103.046 13.291C103.438 13.753 103.907 13.984 104.453 13.984C104.719 13.984 104.971 13.928 105.209 13.816C105.461 13.704 105.671 13.522 105.839 13.27C106.021 13.018 106.161 12.696 106.259 12.304C106.371 11.912 106.427 11.436 106.427 10.876ZM116.85 7.873H114.498V12.01C114.498 12.766 114.603 13.284 114.813 13.564C115.023 13.844 115.373 13.984 115.863 13.984C116.101 13.984 116.318 13.963 116.514 13.921C116.71 13.865 116.85 13.823 116.934 13.795L117.123 15.748C117.011 15.804 116.801 15.895 116.493 16.021C116.199 16.147 115.758 16.21 115.17 16.21C114.596 16.21 114.099 16.14 113.679 16C113.273 15.86 112.93 15.636 112.65 15.328C112.384 15.006 112.181 14.6 112.041 14.11C111.915 13.606 111.852 12.99 111.852 12.262V7.873H110.466V6.067L111.852 5.815L112.146 2.959H114.498V5.773H117.081L116.85 7.873ZM124.416 8.377C124.346 8.321 124.241 8.251 124.101 8.167C123.975 8.083 123.821 7.999 123.639 7.915C123.471 7.831 123.268 7.761 123.03 7.705C122.806 7.649 122.561 7.621 122.295 7.621C121.847 7.621 121.504 7.691 121.266 7.831C121.042 7.971 120.93 8.139 120.93 8.335C120.93 8.601 121.028 8.818 121.224 8.986C121.434 9.14 121.777 9.336 122.253 9.574L122.862 9.868C123.254 10.064 123.604 10.267 123.912 10.477C124.234 10.673 124.507 10.904 124.731 11.17C124.955 11.422 125.13 11.709 125.256 12.031C125.382 12.339 125.445 12.703 125.445 13.123C125.445 14.075 125.116 14.838 124.458 15.412C123.814 15.972 122.855 16.252 121.581 16.252C121.119 16.252 120.713 16.21 120.363 16.126C120.013 16.056 119.705 15.972 119.439 15.874C119.173 15.762 118.949 15.643 118.767 15.517C118.585 15.391 118.431 15.272 118.305 15.16L119.124 13.018C119.222 13.116 119.348 13.228 119.502 13.354C119.656 13.48 119.831 13.599 120.027 13.711C120.237 13.809 120.461 13.9 120.699 13.984C120.951 14.054 121.217 14.089 121.497 14.089C121.945 14.089 122.302 14.026 122.568 13.9C122.848 13.76 122.988 13.571 122.988 13.333C122.988 13.179 122.96 13.046 122.904 12.934C122.848 12.822 122.757 12.717 122.631 12.619C122.519 12.521 122.365 12.423 122.169 12.325C121.987 12.227 121.763 12.108 121.497 11.968L120.888 11.653C120.174 11.303 119.607 10.89 119.187 10.414C118.781 9.924 118.578 9.273 118.578 8.461C118.578 8.013 118.669 7.607 118.851 7.243C119.033 6.879 119.285 6.571 119.607 6.319C119.943 6.067 120.328 5.871 120.762 5.731C121.21 5.591 121.7 5.521 122.232 5.521C122.652 5.521 123.023 5.556 123.345 5.626C123.667 5.696 123.94 5.78 124.164 5.878C124.402 5.976 124.598 6.081 124.752 6.193C124.906 6.291 125.025 6.375 125.109 6.445L124.416 8.377ZM135.236 9.616C135.236 10.078 135.215 10.47 135.173 10.792C135.145 11.1 135.11 11.373 135.068 11.611H129.587C129.657 12.479 129.923 13.102 130.385 13.48C130.861 13.844 131.519 14.026 132.359 14.026C132.695 14.026 132.996 13.998 133.262 13.942C133.528 13.872 133.759 13.795 133.955 13.711C134.165 13.613 134.34 13.522 134.48 13.438C134.62 13.34 134.725 13.263 134.795 13.207L135.404 15.055C135.32 15.125 135.201 15.23 135.047 15.37C134.893 15.496 134.669 15.629 134.375 15.769C134.095 15.895 133.738 16.007 133.304 16.105C132.884 16.203 132.373 16.252 131.771 16.252C131.071 16.252 130.427 16.154 129.839 15.958C129.265 15.748 128.768 15.426 128.348 14.992C127.928 14.558 127.599 13.998 127.361 13.312C127.137 12.612 127.025 11.779 127.025 10.813C127.025 9.903 127.144 9.119 127.382 8.461C127.634 7.789 127.97 7.236 128.39 6.802C128.824 6.368 129.321 6.046 129.881 5.836C130.455 5.626 131.057 5.521 131.687 5.521C132.793 5.521 133.661 5.864 134.291 6.55C134.921 7.236 135.236 8.258 135.236 9.616ZM131.435 7.579C130.903 7.579 130.462 7.768 130.112 8.146C129.776 8.524 129.594 9.091 129.566 9.847H132.863C132.877 9.749 132.884 9.665 132.884 9.595C132.884 9.511 132.884 9.434 132.884 9.364C132.884 8.818 132.758 8.384 132.506 8.062C132.254 7.74 131.897 7.579 131.435 7.579ZM6.132 30.369H3.717V39H2.016V30.369H0.63V29.172L2.016 28.92V27.219C2.016 26.085 2.296 25.238 2.856 24.678C3.416 24.118 4.207 23.838 5.229 23.838C5.593 23.838 5.887 23.887 6.111 23.985C6.349 24.069 6.503 24.125 6.573 24.153L6.342 25.602C6.272 25.574 6.132 25.525 5.922 25.455C5.726 25.385 5.488 25.35 5.208 25.35C4.718 25.35 4.347 25.49 4.095 25.77C3.843 26.05 3.717 26.54 3.717 27.24V28.92H6.342L6.132 30.369ZM16.1551 39H14.5801V37.866H14.5381C14.4541 37.964 14.3351 38.09 14.1811 38.244C14.0271 38.398 13.8241 38.552 13.5721 38.706C13.3341 38.846 13.0401 38.972 12.6901 39.084C12.3401 39.196 11.9201 39.252 11.4301 39.252C10.3801 39.252 9.58207 38.923 9.03607 38.265C8.49007 37.607 8.21707 36.571 8.21707 35.157V28.92H9.91807V34.884C9.91807 35.892 10.0721 36.62 10.3801 37.068C10.6881 37.516 11.1851 37.74 11.8711 37.74C12.2211 37.74 12.5291 37.705 12.7951 37.635C13.0751 37.551 13.3201 37.453 13.5301 37.341C13.7401 37.229 13.9151 37.11 14.0551 36.984C14.2091 36.858 14.3421 36.746 14.4541 36.648V28.92H16.1551V39ZM11.4091 26.022C11.4091 26.344 11.3041 26.603 11.0941 26.799C10.8981 26.995 10.6601 27.093 10.3801 27.093C10.1001 27.093 9.85507 26.995 9.64507 26.799C9.44907 26.603 9.35107 26.344 9.35107 26.022C9.35107 25.7 9.44907 25.441 9.64507 25.245C9.85507 25.049 10.1001 24.951 10.3801 24.951C10.6601 24.951 10.8981 25.049 11.0941 25.245C11.3041 25.441 11.4091 25.7 11.4091 26.022ZM14.9791 26.022C14.9791 26.344 14.8741 26.603 14.6641 26.799C14.4681 26.995 14.2301 27.093 13.9501 27.093C13.6701 27.093 13.4251 26.995 13.2151 26.799C13.0191 26.603 12.9211 26.344 12.9211 26.022C12.9211 25.7 13.0191 25.441 13.2151 25.245C13.4251 25.049 13.6701 24.951 13.9501 24.951C14.2301 24.951 14.4681 25.049 14.6641 25.245C14.8741 25.441 14.9791 25.7 14.9791 26.022ZM24.2288 30.432C24.1588 30.404 24.0538 30.369 23.9138 30.327C23.7878 30.271 23.5848 30.243 23.3048 30.243C22.9688 30.243 22.6678 30.292 22.4018 30.39C22.1498 30.474 21.9258 30.586 21.7298 30.726C21.5478 30.866 21.3938 31.02 21.2678 31.188C21.1418 31.356 21.0438 31.517 20.9738 31.671V39H19.2728V28.92H20.8478V30.411H20.8898C20.9738 30.229 21.0788 30.04 21.2048 29.844C21.3308 29.648 21.4918 29.466 21.6878 29.298C21.8978 29.13 22.1428 28.997 22.4228 28.899C22.7168 28.787 23.0598 28.731 23.4518 28.731C23.6618 28.731 23.8368 28.745 23.9768 28.773C24.1168 28.801 24.2498 28.836 24.3758 28.878L24.2288 30.432ZM39.0233 39L35.5793 33.099C35.3973 33.113 35.2083 33.127 35.0123 33.141C34.8303 33.141 34.6413 33.141 34.4453 33.141H33.3113V39H31.4843V24.51H34.5503C36.5243 24.51 37.9663 24.853 38.8763 25.539C39.8003 26.225 40.2623 27.233 40.2623 28.563C40.2623 29.557 40.0243 30.411 39.5483 31.125C39.0863 31.825 38.3723 32.35 37.4063 32.7L41.2703 39H39.0233ZM38.3093 28.668C38.3093 27.744 38.0083 27.072 37.4063 26.652C36.8183 26.232 35.8663 26.022 34.5503 26.022H33.3113V31.629H34.4453C35.7893 31.629 36.7693 31.377 37.3853 30.873C38.0013 30.369 38.3093 29.634 38.3093 28.668ZM50.4094 32.616C50.4094 32.952 50.3884 33.26 50.3464 33.54C50.3184 33.82 50.2764 34.079 50.2204 34.317H44.3614C44.4314 35.493 44.7254 36.361 45.2434 36.921C45.7754 37.467 46.5034 37.74 47.4274 37.74C47.8194 37.74 48.1624 37.705 48.4564 37.635C48.7644 37.551 49.0234 37.46 49.2334 37.362C49.4574 37.264 49.6324 37.166 49.7584 37.068C49.8984 36.956 50.0034 36.865 50.0734 36.795L50.5774 38.013C50.4934 38.097 50.3674 38.209 50.1994 38.349C50.0454 38.489 49.8354 38.629 49.5694 38.769C49.3174 38.895 48.9954 39.007 48.6034 39.105C48.2254 39.203 47.7704 39.252 47.2384 39.252C45.8104 39.252 44.6904 38.818 43.8784 37.95C43.0664 37.082 42.6604 35.71 42.6604 33.834C42.6604 32.952 42.7794 32.189 43.0174 31.545C43.2554 30.887 43.5774 30.348 43.9834 29.928C44.3894 29.508 44.8514 29.193 45.3694 28.983C45.9014 28.773 46.4544 28.668 47.0284 28.668C48.0784 28.668 48.9044 29.011 49.5064 29.697C50.1084 30.369 50.4094 31.342 50.4094 32.616ZM46.8814 30.117C46.1674 30.117 45.5864 30.369 45.1384 30.873C44.6904 31.363 44.4314 32.07 44.3614 32.994H48.7714C48.7994 32.868 48.8134 32.756 48.8134 32.658C48.8134 32.546 48.8134 32.434 48.8134 32.322C48.8134 31.608 48.6384 31.062 48.2884 30.684C47.9524 30.306 47.4834 30.117 46.8814 30.117ZM59.4531 39V33.036C59.4531 32.07 59.2921 31.356 58.9701 30.894C58.6621 30.418 58.1511 30.18 57.4371 30.18C57.1011 30.18 56.7931 30.222 56.5131 30.306C56.2331 30.376 55.9811 30.467 55.7571 30.579C55.5471 30.677 55.3581 30.796 55.1901 30.936C55.0361 31.062 54.9031 31.174 54.7911 31.272V39H53.0901V28.92H54.6651V30.054H54.7071C54.8051 29.942 54.9381 29.809 55.1061 29.655C55.2881 29.501 55.5051 29.354 55.7571 29.214C56.0231 29.06 56.3241 28.934 56.6601 28.836C57.0101 28.724 57.4021 28.668 57.8361 28.668C58.9141 28.668 59.7331 29.004 60.2931 29.676C60.8671 30.348 61.1541 31.377 61.1541 32.763V39H59.4531ZM68.9309 30.369H66.3269V35.577C66.3269 36.375 66.4389 36.935 66.6629 37.257C66.8869 37.579 67.2789 37.74 67.8389 37.74C68.1189 37.74 68.3569 37.705 68.5529 37.635C68.7489 37.565 68.9029 37.502 69.0149 37.446L69.1829 38.811C69.0849 38.867 68.8889 38.951 68.5949 39.063C68.3149 39.189 67.9089 39.252 67.3769 39.252C66.3829 39.252 65.6759 38.972 65.2559 38.412C64.8359 37.838 64.6259 36.97 64.6259 35.808V30.369H63.2399V29.172L64.6259 28.92L64.8149 26.106H66.3269V28.92H69.1409L68.9309 30.369ZM78.4845 32.616C78.4845 32.952 78.4635 33.26 78.4215 33.54C78.3935 33.82 78.3515 34.079 78.2955 34.317H72.4365C72.5065 35.493 72.8005 36.361 73.3185 36.921C73.8505 37.467 74.5785 37.74 75.5025 37.74C75.8945 37.74 76.2375 37.705 76.5315 37.635C76.8395 37.551 77.0985 37.46 77.3085 37.362C77.5325 37.264 77.7075 37.166 77.8335 37.068C77.9735 36.956 78.0785 36.865 78.1485 36.795L78.6525 38.013C78.5685 38.097 78.4425 38.209 78.2745 38.349C78.1205 38.489 77.9105 38.629 77.6445 38.769C77.3925 38.895 77.0705 39.007 76.6785 39.105C76.3005 39.203 75.8455 39.252 75.3135 39.252C73.8855 39.252 72.7655 38.818 71.9535 37.95C71.1415 37.082 70.7355 35.71 70.7355 33.834C70.7355 32.952 70.8545 32.189 71.0925 31.545C71.3305 30.887 71.6525 30.348 72.0585 29.928C72.4645 29.508 72.9265 29.193 73.4445 28.983C73.9765 28.773 74.5295 28.668 75.1035 28.668C76.1535 28.668 76.9795 29.011 77.5815 29.697C78.1835 30.369 78.4845 31.342 78.4845 32.616ZM74.9565 30.117C74.2425 30.117 73.6615 30.369 73.2135 30.873C72.7655 31.363 72.5065 32.07 72.4365 32.994H76.8465C76.8745 32.868 76.8885 32.756 76.8885 32.658C76.8885 32.546 76.8885 32.434 76.8885 32.322C76.8885 31.608 76.7135 31.062 76.3635 30.684C76.0275 30.306 75.5585 30.117 74.9565 30.117ZM93.7566 39H92.1816V37.866H92.1396C92.0556 37.964 91.9366 38.09 91.7826 38.244C91.6286 38.398 91.4256 38.552 91.1736 38.706C90.9356 38.846 90.6416 38.972 90.2916 39.084C89.9416 39.196 89.5216 39.252 89.0316 39.252C87.9816 39.252 87.1836 38.923 86.6376 38.265C86.0916 37.607 85.8186 36.571 85.8186 35.157V28.92H87.5196V34.884C87.5196 35.892 87.6736 36.62 87.9816 37.068C88.2896 37.516 88.7866 37.74 89.4726 37.74C89.8226 37.74 90.1306 37.705 90.3966 37.635C90.6766 37.551 90.9216 37.453 91.1316 37.341C91.3416 37.229 91.5166 37.11 91.6566 36.984C91.8106 36.858 91.9436 36.746 92.0556 36.648V28.92H93.7566V39ZM103.237 39V33.036C103.237 32.07 103.076 31.356 102.754 30.894C102.446 30.418 101.935 30.18 101.221 30.18C100.885 30.18 100.577 30.222 100.297 30.306C100.017 30.376 99.7653 30.467 99.5413 30.579C99.3313 30.677 99.1423 30.796 98.9743 30.936C98.8203 31.062 98.6873 31.174 98.5753 31.272V39H96.8743V28.92H98.4493V30.054H98.4913C98.5893 29.942 98.7223 29.809 98.8903 29.655C99.0723 29.501 99.2893 29.354 99.5413 29.214C99.8073 29.06 100.108 28.934 100.444 28.836C100.794 28.724 101.186 28.668 101.62 28.668C102.698 28.668 103.517 29.004 104.077 29.676C104.651 30.348 104.938 31.377 104.938 32.763V39H103.237ZM107.444 34.17C107.444 33.204 107.584 32.378 107.864 31.692C108.144 30.992 108.515 30.425 108.977 29.991C109.439 29.557 109.964 29.242 110.552 29.046C111.14 28.836 111.742 28.731 112.358 28.731C112.806 28.731 113.184 28.773 113.492 28.857C113.8 28.927 114.052 29.004 114.248 29.088V24.153L115.949 23.964V39H114.374V37.866H114.332C114.262 37.964 114.157 38.09 114.017 38.244C113.891 38.398 113.709 38.552 113.471 38.706C113.247 38.846 112.96 38.972 112.61 39.084C112.26 39.196 111.833 39.252 111.329 39.252C110.783 39.252 110.272 39.147 109.796 38.937C109.32 38.713 108.907 38.384 108.557 37.95C108.207 37.516 107.934 36.984 107.738 36.354C107.542 35.724 107.444 34.996 107.444 34.17ZM111.959 37.74C112.295 37.74 112.589 37.698 112.841 37.614C113.107 37.53 113.331 37.432 113.513 37.32C113.695 37.208 113.842 37.089 113.954 36.963C114.08 36.823 114.178 36.711 114.248 36.627V30.747C114.066 30.621 113.828 30.509 113.534 30.411C113.254 30.299 112.89 30.243 112.442 30.243C111.462 30.243 110.678 30.537 110.09 31.125C109.502 31.713 109.208 32.686 109.208 34.044C109.208 34.716 109.278 35.29 109.418 35.766C109.572 36.228 109.768 36.606 110.006 36.9C110.258 37.194 110.552 37.411 110.888 37.551C111.224 37.677 111.581 37.74 111.959 37.74ZM133.356 28.878C133.356 30.376 132.859 31.566 131.865 32.448C130.885 33.33 129.359 33.771 127.287 33.771H126.027V39H124.2V24.51H127.392C129.464 24.51 130.976 24.888 131.928 25.644C132.88 26.4 133.356 27.478 133.356 28.878ZM131.403 28.983C131.403 28.003 131.081 27.268 130.437 26.778C129.807 26.274 128.792 26.022 127.392 26.022H126.027V32.259H127.287C128.715 32.259 129.758 31.972 130.416 31.398C131.074 30.824 131.403 30.019 131.403 28.983ZM142.756 32.616C142.756 32.952 142.735 33.26 142.693 33.54C142.665 33.82 142.623 34.079 142.567 34.317H136.708C136.778 35.493 137.072 36.361 137.59 36.921C138.122 37.467 138.85 37.74 139.774 37.74C140.166 37.74 140.509 37.705 140.803 37.635C141.111 37.551 141.37 37.46 141.58 37.362C141.804 37.264 141.979 37.166 142.105 37.068C142.245 36.956 142.35 36.865 142.42 36.795L142.924 38.013C142.84 38.097 142.714 38.209 142.546 38.349C142.392 38.489 142.182 38.629 141.916 38.769C141.664 38.895 141.342 39.007 140.95 39.105C140.572 39.203 140.117 39.252 139.585 39.252C138.157 39.252 137.037 38.818 136.225 37.95C135.413 37.082 135.007 35.71 135.007 33.834C135.007 32.952 135.126 32.189 135.364 31.545C135.602 30.887 135.924 30.348 136.33 29.928C136.736 29.508 137.198 29.193 137.716 28.983C138.248 28.773 138.801 28.668 139.375 28.668C140.425 28.668 141.251 29.011 141.853 29.697C142.455 30.369 142.756 31.342 142.756 32.616ZM139.228 30.117C138.514 30.117 137.933 30.369 137.485 30.873C137.037 31.363 136.778 32.07 136.708 32.994H141.118C141.146 32.868 141.16 32.756 141.16 32.658C141.16 32.546 141.16 32.434 141.16 32.322C141.16 31.608 140.985 31.062 140.635 30.684C140.299 30.306 139.83 30.117 139.228 30.117ZM151.8 39V33.036C151.8 32.07 151.639 31.356 151.317 30.894C151.009 30.418 150.498 30.18 149.784 30.18C149.448 30.18 149.14 30.222 148.86 30.306C148.58 30.376 148.328 30.467 148.104 30.579C147.894 30.677 147.705 30.796 147.537 30.936C147.383 31.062 147.25 31.174 147.138 31.272V39H145.437V28.92H147.012V30.054H147.054C147.152 29.942 147.285 29.809 147.453 29.655C147.635 29.501 147.852 29.354 148.104 29.214C148.37 29.06 148.671 28.934 149.007 28.836C149.357 28.724 149.749 28.668 150.183 28.668C151.261 28.668 152.08 29.004 152.64 29.676C153.214 30.348 153.501 31.377 153.501 32.763V39H151.8ZM161.53 31.02C161.446 30.95 161.334 30.866 161.194 30.768C161.054 30.656 160.886 30.558 160.69 30.474C160.508 30.376 160.298 30.299 160.06 30.243C159.836 30.173 159.584 30.138 159.304 30.138C158.758 30.138 158.352 30.243 158.086 30.453C157.82 30.649 157.687 30.894 157.687 31.188C157.687 31.594 157.806 31.909 158.044 32.133C158.296 32.357 158.688 32.609 159.22 32.889L159.976 33.267C160.774 33.673 161.376 34.114 161.782 34.59C162.202 35.052 162.412 35.654 162.412 36.396C162.412 36.774 162.335 37.138 162.181 37.488C162.041 37.838 161.824 38.146 161.53 38.412C161.236 38.664 160.865 38.867 160.417 39.021C159.969 39.175 159.437 39.252 158.821 39.252C158.401 39.252 158.03 39.217 157.708 39.147C157.386 39.077 157.099 38.986 156.847 38.874C156.609 38.762 156.399 38.65 156.217 38.538C156.049 38.412 155.909 38.293 155.797 38.181L156.427 36.69C156.651 36.914 156.952 37.145 157.33 37.383C157.708 37.621 158.205 37.74 158.821 37.74C159.465 37.74 159.948 37.635 160.27 37.425C160.592 37.201 160.753 36.928 160.753 36.606C160.753 36.368 160.711 36.165 160.627 35.997C160.557 35.815 160.445 35.654 160.291 35.514C160.151 35.36 159.969 35.22 159.745 35.094C159.521 34.968 159.269 34.828 158.989 34.674L158.254 34.275C157.526 33.883 156.98 33.463 156.616 33.015C156.266 32.553 156.091 31.972 156.091 31.272C156.091 30.894 156.168 30.551 156.322 30.243C156.49 29.921 156.714 29.648 156.994 29.424C157.288 29.186 157.631 29.004 158.023 28.878C158.429 28.738 158.87 28.668 159.346 28.668C159.752 28.668 160.102 28.703 160.396 28.773C160.704 28.843 160.97 28.934 161.194 29.046C161.418 29.144 161.6 29.249 161.74 29.361C161.894 29.473 162.013 29.564 162.097 29.634L161.53 31.02ZM166.937 25.287C166.937 25.651 166.818 25.945 166.58 26.169C166.342 26.379 166.055 26.484 165.719 26.484C165.383 26.484 165.096 26.379 164.858 26.169C164.634 25.945 164.522 25.651 164.522 25.287C164.522 24.923 164.634 24.629 164.858 24.405C165.096 24.181 165.383 24.069 165.719 24.069C166.055 24.069 166.342 24.181 166.58 24.405C166.818 24.629 166.937 24.923 166.937 25.287ZM166.559 39H164.858V28.92H166.559V39ZM178.078 33.96C178.078 34.87 177.952 35.654 177.7 36.312C177.448 36.97 177.105 37.523 176.671 37.971C176.251 38.405 175.761 38.727 175.201 38.937C174.655 39.147 174.081 39.252 173.479 39.252C172.863 39.252 172.289 39.147 171.757 38.937C171.225 38.727 170.763 38.405 170.371 37.971C169.979 37.523 169.671 36.97 169.447 36.312C169.237 35.654 169.132 34.87 169.132 33.96C169.132 33.05 169.258 32.266 169.51 31.608C169.762 30.936 170.098 30.383 170.518 29.949C170.952 29.515 171.442 29.193 171.988 28.983C172.548 28.773 173.129 28.668 173.731 28.668C174.347 28.668 174.921 28.773 175.453 28.983C175.985 29.193 176.44 29.515 176.818 29.949C177.21 30.383 177.518 30.936 177.742 31.608C177.966 32.266 178.078 33.05 178.078 33.96ZM176.314 33.96C176.314 32.672 176.055 31.72 175.537 31.104C175.033 30.488 174.389 30.18 173.605 30.18C172.821 30.18 172.17 30.488 171.652 31.104C171.148 31.72 170.896 32.672 170.896 33.96C170.896 35.248 171.148 36.2 171.652 36.816C172.156 37.432 172.807 37.74 173.605 37.74C174.417 37.74 175.068 37.432 175.558 36.816C176.062 36.2 176.314 35.248 176.314 33.96ZM187.032 39V33.036C187.032 32.07 186.871 31.356 186.549 30.894C186.241 30.418 185.73 30.18 185.016 30.18C184.68 30.18 184.372 30.222 184.092 30.306C183.812 30.376 183.56 30.467 183.336 30.579C183.126 30.677 182.937 30.796 182.769 30.936C182.615 31.062 182.482 31.174 182.37 31.272V39H180.669V28.92H182.244V30.054H182.286C182.384 29.942 182.517 29.809 182.685 29.655C182.867 29.501 183.084 29.354 183.336 29.214C183.602 29.06 183.903 28.934 184.239 28.836C184.589 28.724 184.981 28.668 185.415 28.668C186.493 28.668 187.312 29.004 187.872 29.676C188.446 30.348 188.733 31.377 188.733 32.763V39H187.032Z" fill="#0B0C0C"/>
</svg>
